<svg version="1.1" id="Layer_1" xmlns="http://www.w3.org/2000/svg" xmlns:xlink="http://www.w3.org/1999/xlink" x="0px" y="0px"
	 width="100%" viewBox="0 0 3077 672" enable-background="new 0 0 3077 672" xml:space="preserve">
<path fill="#FFFEFE" opacity="1.000000" stroke="none" 
	d="
M165.000000,673.000000 
	C110.357071,673.000000 55.714134,673.000000 1.035601,673.000000 
	C1.035601,449.121002 1.035601,225.241974 1.035601,1.000000 
	C55.354809,1.000000 109.710426,1.000000 164.529846,1.207045 
	C164.993668,1.414091 164.946976,1.825588 164.493378,1.873193 
	C157.260193,2.577284 150.417450,2.849490 143.711258,3.952221 
	C97.986603,11.470958 61.272633,33.997528 33.938396,71.323738 
	C12.215766,100.987022 2.042195,134.448639 2.105289,171.293365 
	C2.294114,281.562805 2.162702,391.832825 2.185267,502.102600 
	C2.189349,522.049622 4.899027,541.604065 11.797012,560.393066 
	C36.345707,627.259583 93.443192,668.877197 164.970337,672.380188 
	C164.993683,672.585938 165.000000,673.000000 165.000000,673.000000 
z"/>
<path fill="#FFFEFE" opacity="1.000000" stroke="none" 
	d="
M2913.000000,1.000000 
	C2967.925537,1.000000 3022.851318,1.000000 3078.000000,1.000000 
	C3078.000000,53.687351 3078.000000,106.375015 3077.784180,159.475266 
	C3077.568359,159.887848 3077.126953,159.825348 3077.139160,159.386246 
	C3076.814453,155.307297 3076.606934,151.650146 3076.121826,148.030167 
	C3069.967529,102.100807 3048.610352,64.687119 3012.058105,36.388206 
	C2983.056641,13.934999 2949.887939,2.365912 2913.029785,1.618724 
	C2913.006592,1.413334 2913.000000,1.000000 2913.000000,1.000000 
z"/>
<path fill="#FFFEFE" opacity="1.000000" stroke="none" 
	d="
M3078.000000,516.000000 
	C3078.000000,568.260742 3078.000000,620.521545 3078.000000,673.000000 
	C3025.312744,673.000000 2972.625000,673.000000 2919.470215,672.787476 
	C2919.003174,672.574890 2919.048096,672.152100 2919.484375,672.095886 
	C2930.257568,670.454712 2940.796875,669.675354 2950.895752,667.141052 
	C2988.322021,657.749268 3019.050049,637.699707 3042.644531,607.100647 
	C3063.297363,580.316040 3075.011475,550.033142 3077.337891,516.125732 
	C3077.559570,516.088867 3078.000000,516.000000 3078.000000,516.000000 
z"/>
<path fill="#FFD6D7" opacity="1.000000" stroke="none" 
	d="
M2919.048096,672.152100 
	C2919.048096,672.152100 2919.003174,672.574890 2919.001465,672.787476 
	C2001.292358,673.000000 1083.584595,673.000000 165.438477,673.000000 
	C165.000000,673.000000 164.993683,672.585938 165.436523,672.296875 
	C168.878922,672.005249 171.878494,672.000366 174.878067,672.000366 
	C1087.771606,672.000061 2000.665283,671.999939 2913.558838,672.006287 
	C2915.388672,672.006287 2917.218262,672.101379 2919.048096,672.152100 
z"/>
<path fill="#FFD6D7" opacity="1.000000" stroke="none" 
	d="
M2912.561523,1.000000 
	C2913.000000,1.000000 2913.006592,1.413334 2912.563232,1.698413 
	C2911.620117,1.991062 2911.120117,2.005271 2910.620361,2.005271 
	C1999.390381,2.003994 1088.160278,2.001998 176.930237,1.992389 
	C172.935822,1.992347 168.941391,1.883579 164.946976,1.825588 
	C164.946976,1.825588 164.993668,1.414091 164.996826,1.207045 
	C1080.707642,1.000000 1996.415405,1.000000 2912.561523,1.000000 
z"/>
<path fill="#FF8389" opacity="1.000000" stroke="none" 
	d="
M3078.000000,515.533020 
	C3078.000000,516.000000 3077.559570,516.088867 3077.263184,515.648560 
	C3076.977539,401.241638 3076.987305,287.274963 3077.005371,173.308273 
	C3077.006104,168.813965 3077.084717,164.319656 3077.126953,159.825348 
	C3077.126953,159.825348 3077.568359,159.887848 3077.784180,159.943924 
	C3078.000000,278.355347 3078.000000,396.710693 3078.000000,515.533020 
z"/>
<path fill="#FF5B62" opacity="1.000000" stroke="none" 
	d="
M3077.139160,159.386246 
	C3077.084717,164.319656 3077.006104,168.813965 3077.005371,173.308273 
	C3076.987305,287.274963 3076.977539,401.241638 3077.041504,515.685486 
	C3075.011475,550.033142 3063.297363,580.316040 3042.644531,607.100647 
	C3019.050049,637.699707 2988.322021,657.749268 2950.895752,667.141052 
	C2940.796875,669.675354 2930.257568,670.454712 2919.484375,672.095886 
	C2917.218262,672.101379 2915.388672,672.006287 2913.558838,672.006287 
	C2000.665283,671.999939 1087.771606,672.000061 174.878067,672.000366 
	C171.878494,672.000366 168.878922,672.005249 165.413177,672.091187 
	C93.443192,668.877197 36.345707,627.259583 11.797012,560.393066 
	C4.899027,541.604065 2.189349,522.049622 2.185267,502.102600 
	C2.162702,391.832825 2.294114,281.562805 2.105289,171.293365 
	C2.042195,134.448639 12.215766,100.987022 33.938396,71.323738 
	C61.272633,33.997528 97.986603,11.470958 143.711258,3.952221 
	C150.417450,2.849490 157.260193,2.577284 164.493378,1.873193 
	C168.941391,1.883579 172.935822,1.992347 176.930237,1.992389 
	C1088.160278,2.001998 1999.390381,2.003994 2910.620361,2.005271 
	C2911.120117,2.005271 2911.620117,1.991062 2912.586426,1.903803 
	C2949.887939,2.365912 2983.056641,13.934999 3012.058105,36.388206 
	C3048.610352,64.687119 3069.967529,102.100807 3076.121826,148.030167 
	C3076.606934,151.650146 3076.814453,155.307297 3077.139160,159.386246 
M2328.644775,253.870651 
	C2291.747803,225.003403 2254.850586,196.136154 2217.547852,166.951523 
	C2217.547852,282.003754 2217.547852,396.044067 2217.547852,510.224609 
	C2329.464111,510.224609 2441.006836,510.224609 2552.644531,510.224609 
	C2552.644531,398.394775 2552.644531,286.974792 2552.644531,175.348694 
	C2497.035400,175.348694 2441.675537,175.348694 2385.771484,175.348694 
	C2385.771484,216.364227 2385.771484,257.032501 2385.771484,298.548828 
	C2366.422607,283.398071 2347.825195,268.835815 2328.644775,253.870651 
M924.500000,511.000000 
	C960.165710,511.000000 995.831421,510.963684 1031.497070,511.010620 
	C1064.629150,511.054230 1095.219727,502.404297 1123.395020,484.889374 
	C1184.453491,446.932953 1214.619995,371.394592 1196.341553,301.795074 
	C1176.453979,226.069305 1110.680664,175.131027 1032.476929,175.015244 
	C978.812195,174.935776 925.147156,175.000000 871.482300,175.000000 
	C869.735596,175.000000 867.988892,175.000000 866.322876,175.000000 
	C866.322876,287.389618 866.322876,398.981934 866.322876,511.000000 
	C885.574951,511.000000 904.537476,511.000000 924.500000,511.000000 
M519.825012,445.664886 
	C554.185425,492.166138 600.125427,517.656250 657.929199,520.741333 
	C696.713989,522.811340 732.398682,512.544983 764.783997,491.073395 
	C846.509888,436.888885 869.342102,325.771667 815.110474,244.250229 
	C783.581848,196.856186 738.812439,170.196030 682.394836,164.339661 
	C645.710999,160.531723 610.555908,167.750931 578.544617,186.455627 
	C521.999329,219.496033 491.082733,269.071808 487.220947,334.480957 
	C484.838226,374.839050 496.270782,411.821686 519.825012,445.664886 
M2873.739014,432.157715 
	C2885.884277,394.338318 2878.483643,361.618469 2848.343750,334.833374 
	C2846.778564,333.442383 2845.194092,332.072754 2843.554932,330.637482 
	C2845.652344,327.916504 2847.520508,325.578156 2849.298096,323.172791 
	C2859.349854,309.568787 2865.396973,294.375488 2865.846680,277.430267 
	C2866.560791,250.523300 2856.576172,227.539368 2837.866699,208.612549 
	C2814.757080,185.234421 2786.035156,175.038086 2753.478760,175.012115 
	C2697.497559,174.967468 2641.516357,174.999512 2585.535156,174.999359 
	C2583.791992,174.999344 2582.048828,174.999359 2580.372803,174.999359 
	C2580.372803,287.213928 2580.372803,398.607208 2580.372803,510.633087 
	C2582.781982,510.633087 2584.904297,510.633087 2587.026367,510.633087 
	C2639.675293,510.633087 2692.324707,510.550507 2744.973389,510.680878 
	C2761.904541,510.722778 2778.589111,509.120941 2794.716797,503.919739 
	C2831.534424,492.045837 2858.871582,469.498291 2873.739014,432.157715 
M1897.055176,429.500000 
	C1897.055176,456.301483 1897.055176,483.102997 1897.055176,510.632782 
	C1899.584595,510.632782 1901.697876,510.632812 1903.811035,510.632812 
	C1955.137573,510.632843 2006.466064,510.887482 2057.789062,510.464813 
	C2071.700684,510.350281 2085.902832,509.615448 2099.439697,506.697540 
	C2139.164795,498.134644 2169.931885,476.879547 2187.707031,439.291016 
	C2203.431152,406.039948 2197.564697,367.944031 2173.052734,342.278870 
	C2169.169922,338.213348 2164.877930,334.538422 2160.612305,330.529999 
	C2162.371338,328.227722 2164.083496,326.000458 2165.781006,323.761871 
	C2176.233643,309.977234 2182.322998,294.473053 2182.830566,277.172180 
	C2183.592529,251.212692 2174.270752,228.926056 2156.433350,210.294266 
	C2133.125732,185.948364 2104.056641,175.086914 2070.729004,175.027267 
	C2014.569946,174.926743 1958.410645,174.997528 1902.251465,175.009735 
	C1900.643188,175.010086 1899.034912,175.162872 1897.055176,175.263458 
	C1897.055176,259.923004 1897.055176,344.211517 1897.055176,429.500000 
M1869.132812,424.500000 
	C1869.132812,415.403076 1869.132812,406.306152 1869.132812,396.668274 
	C1845.688721,396.668274 1822.951538,396.668274 1800.331543,396.668274 
	C1800.331543,391.698059 1800.331543,387.295898 1800.331543,382.493103 
	C1823.361938,382.493103 1845.978882,382.493103 1868.820557,382.493103 
	C1868.820557,355.519684 1868.820557,328.969177 1868.820557,301.900818 
	C1845.775757,301.900818 1823.037964,301.900818 1800.218262,301.900818 
	C1800.218262,296.965057 1800.218262,292.551270 1800.218262,287.559692 
	C1823.256226,287.559692 1845.998657,287.559692 1868.763184,287.559692 
	C1868.763184,249.583954 1868.763184,212.191315 1868.763184,174.737640 
	C1776.156128,174.737640 1683.919067,174.737640 1591.564087,174.737640 
	C1591.564087,286.651855 1591.564087,398.193756 1591.564087,509.695801 
	C1684.206787,509.695801 1776.464600,509.695801 1869.132935,509.695801 
	C1869.132935,481.428314 1869.132935,453.464142 1869.132812,424.500000 
M1293.343018,195.853043 
	C1284.658691,203.096619 1275.209961,209.605057 1267.418945,217.707596 
	C1227.999878,258.702820 1211.194702,307.654633 1217.914673,364.278259 
	C1223.180786,408.651917 1242.603882,446.142792 1276.280640,475.265686 
	C1323.889160,516.436523 1379.456299,529.932190 1439.914551,513.138855 
	C1509.514038,493.806366 1551.905762,446.654572 1567.739258,376.149109 
	C1570.184204,365.261261 1570.485474,353.891998 1571.851196,342.116486 
	C1511.868530,342.116486 1453.320312,342.116486 1393.896973,342.116486 
	C1423.662720,290.431427 1452.999512,239.490982 1482.774170,187.790344 
	C1417.786133,155.907074 1355.085205,155.584015 1293.343018,195.853043 
M469.082733,494.497620 
	C469.082733,444.083099 469.082733,393.668579 469.082733,342.644257 
	C437.721832,342.644257 407.013550,342.644257 375.851288,342.644257 
	C375.851288,286.469360 375.851288,230.905762 375.851288,175.320404 
	C319.837372,175.320404 264.288879,175.320404 208.284576,175.320404 
	C208.284576,177.260239 208.284592,178.896652 208.284592,180.533081 
	C208.284592,288.657379 208.313828,396.781677 208.184052,504.905823 
	C208.178513,509.514862 209.414978,510.741119 214.009872,510.733612 
	C297.143738,510.597656 380.277863,510.634521 463.411957,510.634521 
	C465.186646,510.634521 466.961334,510.634552 468.521912,510.634552 
	C468.834137,509.623962 469.015228,509.307251 469.017761,508.989136 
	C469.053680,504.491455 469.065308,499.993561 469.082733,494.497620 
z"/>
<path fill="#FFFEFE" opacity="1.000000" stroke="none" 
	d="
M2328.936279,254.072113 
	C2347.825195,268.835815 2366.422607,283.398071 2385.771484,298.548828 
	C2385.771484,257.032501 2385.771484,216.364227 2385.771484,175.348694 
	C2441.675537,175.348694 2497.035400,175.348694 2552.644531,175.348694 
	C2552.644531,286.974792 2552.644531,398.394775 2552.644531,510.224609 
	C2441.006836,510.224609 2329.464111,510.224609 2217.547852,510.224609 
	C2217.547852,396.044067 2217.547852,282.003754 2217.547852,166.951523 
	C2254.850586,196.136154 2291.747803,225.003403 2328.936279,254.072113 
z"/>
<path fill="#FFFFFF" opacity="1.000000" stroke="none" 
	d="
M924.000000,511.000000 
	C904.537476,511.000000 885.574951,511.000000 866.322876,511.000000 
	C866.322876,398.981934 866.322876,287.389618 866.322876,175.000000 
	C867.988892,175.000000 869.735596,175.000000 871.482300,175.000000 
	C925.147156,175.000000 978.812195,174.935776 1032.476929,175.015244 
	C1110.680664,175.131027 1176.453979,226.069305 1196.341553,301.795074 
	C1214.619995,371.394592 1184.453491,446.932953 1123.395020,484.889374 
	C1095.219727,502.404297 1064.629150,511.054230 1031.497070,511.010620 
	C995.831421,510.963684 960.165710,511.000000 924.000000,511.000000 
z"/>
<path fill="#FFFFFF" opacity="1.000000" stroke="none" 
	d="
M519.617371,445.370697 
	C496.270782,411.821686 484.838226,374.839050 487.220947,334.480957 
	C491.082733,269.071808 521.999329,219.496033 578.544617,186.455627 
	C610.555908,167.750931 645.710999,160.531723 682.394836,164.339661 
	C738.812439,170.196030 783.581848,196.856186 815.110474,244.250229 
	C869.342102,325.771667 846.509888,436.888885 764.783997,491.073395 
	C732.398682,512.544983 696.713989,522.811340 657.929199,520.741333 
	C600.125427,517.656250 554.185425,492.166138 519.617371,445.370697 
z"/>
<path fill="#FFFFFF" opacity="1.000000" stroke="none" 
	d="
M2873.573975,432.510986 
	C2858.871582,469.498291 2831.534424,492.045837 2794.716797,503.919739 
	C2778.589111,509.120941 2761.904541,510.722778 2744.973389,510.680878 
	C2692.324707,510.550507 2639.675293,510.633087 2587.026367,510.633087 
	C2584.904297,510.633087 2582.781982,510.633087 2580.372803,510.633087 
	C2580.372803,398.607208 2580.372803,287.213928 2580.372803,174.999359 
	C2582.048828,174.999359 2583.791992,174.999344 2585.535156,174.999359 
	C2641.516357,174.999512 2697.497559,174.967468 2753.478760,175.012115 
	C2786.035156,175.038086 2814.757080,185.234421 2837.866699,208.612549 
	C2856.576172,227.539368 2866.560791,250.523300 2865.846680,277.430267 
	C2865.396973,294.375488 2859.349854,309.568787 2849.298096,323.172791 
	C2847.520508,325.578156 2845.652344,327.916504 2843.554932,330.637482 
	C2845.194092,332.072754 2846.778564,333.442383 2848.343750,334.833374 
	C2878.483643,361.618469 2885.884277,394.338318 2873.573975,432.510986 
z"/>
<path fill="#FFFFFF" opacity="1.000000" stroke="none" 
	d="
M1897.055176,429.000000 
	C1897.055176,344.211517 1897.055176,259.923004 1897.055176,175.263458 
	C1899.034912,175.162872 1900.643188,175.010086 1902.251465,175.009735 
	C1958.410645,174.997528 2014.569946,174.926743 2070.729004,175.027267 
	C2104.056641,175.086914 2133.125732,185.948364 2156.433350,210.294266 
	C2174.270752,228.926056 2183.592529,251.212692 2182.830566,277.172180 
	C2182.322998,294.473053 2176.233643,309.977234 2165.781006,323.761871 
	C2164.083496,326.000458 2162.371338,328.227722 2160.612305,330.529999 
	C2164.877930,334.538422 2169.169922,338.213348 2173.052734,342.278870 
	C2197.564697,367.944031 2203.431152,406.039948 2187.707031,439.291016 
	C2169.931885,476.879547 2139.164795,498.134644 2099.439697,506.697540 
	C2085.902832,509.615448 2071.700684,510.350281 2057.789062,510.464813 
	C2006.466064,510.887482 1955.137573,510.632843 1903.811035,510.632812 
	C1901.697876,510.632812 1899.584595,510.632782 1897.055176,510.632782 
	C1897.055176,483.102997 1897.055176,456.301483 1897.055176,429.000000 
z"/>
<path fill="#FFFEFE" opacity="1.000000" stroke="none" 
	d="
M1869.132812,425.000000 
	C1869.132935,453.464142 1869.132935,481.428314 1869.132935,509.695801 
	C1776.464600,509.695801 1684.206787,509.695801 1591.564087,509.695801 
	C1591.564087,398.193756 1591.564087,286.651855 1591.564087,174.737640 
	C1683.919067,174.737640 1776.156128,174.737640 1868.763184,174.737640 
	C1868.763184,212.191315 1868.763184,249.583954 1868.763184,287.559692 
	C1845.998657,287.559692 1823.256226,287.559692 1800.218262,287.559692 
	C1800.218262,292.551270 1800.218262,296.965057 1800.218262,301.900818 
	C1823.037964,301.900818 1845.775757,301.900818 1868.820557,301.900818 
	C1868.820557,328.969177 1868.820557,355.519684 1868.820557,382.493103 
	C1845.978882,382.493103 1823.361938,382.493103 1800.331543,382.493103 
	C1800.331543,387.295898 1800.331543,391.698059 1800.331543,396.668274 
	C1822.951538,396.668274 1845.688721,396.668274 1869.132812,396.668274 
	C1869.132812,406.306152 1869.132812,415.403076 1869.132812,425.000000 
z"/>
<path fill="#FFFFFF" opacity="1.000000" stroke="none" 
	d="
M1293.637695,195.644714 
	C1355.085205,155.584015 1417.786133,155.907074 1482.774170,187.790344 
	C1452.999512,239.490982 1423.662720,290.431427 1393.896973,342.116486 
	C1453.320312,342.116486 1511.868530,342.116486 1571.851196,342.116486 
	C1570.485474,353.891998 1570.184204,365.261261 1567.739258,376.149109 
	C1551.905762,446.654572 1509.514038,493.806366 1439.914551,513.138855 
	C1379.456299,529.932190 1323.889160,516.436523 1276.280640,475.265686 
	C1242.603882,446.142792 1223.180786,408.651917 1217.914673,364.278259 
	C1211.194702,307.654633 1227.999878,258.702820 1267.418945,217.707596 
	C1275.209961,209.605057 1284.658691,203.096619 1293.637695,195.644714 
z"/>
<path fill="#FFFEFE" opacity="1.000000" stroke="none" 
	d="
M469.082764,494.996674 
	C469.065308,499.993561 469.053680,504.491455 469.017761,508.989136 
	C469.015228,509.307251 468.834137,509.623962 468.521912,510.634552 
	C466.961334,510.634552 465.186646,510.634521 463.411957,510.634521 
	C380.277863,510.634521 297.143738,510.597656 214.009872,510.733612 
	C209.414978,510.741119 208.178513,509.514862 208.184052,504.905823 
	C208.313828,396.781677 208.284592,288.657379 208.284592,180.533081 
	C208.284592,178.896652 208.284576,177.260239 208.284576,175.320404 
	C264.288879,175.320404 319.837372,175.320404 375.851288,175.320404 
	C375.851288,230.905762 375.851288,286.469360 375.851288,342.644257 
	C407.013550,342.644257 437.721832,342.644257 469.082733,342.644257 
	C469.082733,393.668579 469.082733,444.083099 469.082764,494.996674 
z"/>
</svg>